<mxfile type="device" compressed="false">
    <diagram id="Page-1" name="Page-1">
      <mxGraphModel dx="1360" dy="864" grid="1" gridSize="10" guides="1" tooltips="1" connect="1" arrows="1" fold="1" page="1" pageScale="1" pageWidth="827" pageHeight="1169" math="0" shadow="1">
        <root>
          <mxCell id="0" />   
          <mxCell id="1" parent="0" />
        <object id="r1" label="r1" pic="" bottom_label="core" top_label="1.1.1.1" description="Core Router">
      <mxCell style="rounded=1;whiteSpace=wrap;html=1;" vertex="1" parent="1">
          <mxGeometry x="472" y="848" width="120" height="60" as="geometry" />
      </mxCell>
    </object><object id="r2" label="r2" pic="" bottom_label="core" top_label="2.2.2.2" description="Core Router">
      <mxCell style="rounded=1;whiteSpace=wrap;html=1;" vertex="1" parent="1">
          <mxGeometry x="241" y="533" width="120" height="60" as="geometry" />
      </mxCell>
    </object><object id="r3" label="r3" pic="" bottom_label="edge" top_label="3.3.3.3" description="Edge Router">
      <mxCell style="rounded=1;whiteSpace=wrap;html=1;" vertex="1" parent="1">
          <mxGeometry x="702" y="0" width="120" height="60" as="geometry" />
      </mxCell>
    </object><mxCell id="4c783d026b64f7f34abadd5be66e427d-src" value="Gi1/1" style="labelBackgroundColor=#ffffff;;" vertex="1" connectable="0" parent="4c783d026b64f7f34abadd5be66e427d">
      <mxGeometry x="-0.5" relative="1" as="geometry">
        <mxPoint as="offset" />
      </mxGeometry>
    </mxCell><mxCell id="4c783d026b64f7f34abadd5be66e427d-trgt" value="Gi3/4" style="labelBackgroundColor=#ffffff;;" vertex="1" connectable="0" parent="4c783d026b64f7f34abadd5be66e427d">
      <mxGeometry x="0.5" relative="-1" as="geometry">
        <mxPoint as="offset" />
      </mxGeometry>
    </mxCell><object id="4c783d026b64f7f34abadd5be66e427d" label="DF-10Km" description="DF link between R1 and R2" src_label="Gi1/1" trgt_label="Gi3/4" source="r1" target="r2">
      <mxCell style="endArrow=none;" edge="1" parent="1" source="r1" target="r2">
          <mxGeometry relative="1" as="geometry" />
      </mxCell>
    </object><mxCell id="e6f937d44e23fd838cb4d793ac7ec326-src" value="10GE2/1/1" style="labelBackgroundColor=#ffffff;;" vertex="1" connectable="0" parent="e6f937d44e23fd838cb4d793ac7ec326">
      <mxGeometry x="-0.5" relative="1" as="geometry">
        <mxPoint as="offset" />
      </mxGeometry>
    </mxCell><mxCell id="e6f937d44e23fd838cb4d793ac7ec326-trgt" value="Ten1/1" style="labelBackgroundColor=#ffffff;;" vertex="1" connectable="0" parent="e6f937d44e23fd838cb4d793ac7ec326">
      <mxGeometry x="0.5" relative="-1" as="geometry">
        <mxPoint as="offset" />
      </mxGeometry>
    </mxCell><object id="e6f937d44e23fd838cb4d793ac7ec326" label="DF-32Km" description="DF link between R3 and R2" src_label="10GE2/1/1" trgt_label="Ten1/1" source="r3" target="r2">
      <mxCell style="endArrow=none;" edge="1" parent="1" source="r3" target="r2">
          <mxGeometry relative="1" as="geometry" />
      </mxCell>
    </object></root>
      </mxGraphModel>
    </diagram></mxfile>